<?xml version="1.0" encoding="UTF-8"?>
<svg xmlns="http://www.w3.org/2000/svg" width="400" height="300" viewBox="0 0 400 300" aria-labelledby="title desc">
  <title id="title">Calculator illustration</title>
  <desc id="desc">A simple calculator with display and buttons.</desc>
  <rect x="40" y="20" width="320" height="260" rx="20" ry="20" fill="#2d3a4a" />
  <rect x="64" y="44" width="272" height="56" rx="8" fill="#ffffff" />
  <rect x="76" y="58" width="240" height="28" rx="4" fill="#f1f5f9" />
  <g fill="#e6eef6">
    <rect x="70" y="120" width="48" height="40" rx="6" />
    <rect x="132" y="120" width="48" height="40" rx="6" />
    <rect x="194" y="120" width="48" height="40" rx="6" />
    <rect x="256" y="120" width="48" height="40" rx="6" />

    <rect x="70" y="172" width="48" height="40" rx="6" />
    <rect x="132" y="172" width="48" height="40" rx="6" />
    <rect x="194" y="172" width="48" height="40" rx="6" />
    <rect x="256" y="172" width="48" height="40" rx="6" />

    <rect x="70" y="224" width="110" height="40" rx="6" />
    <rect x="194" y="224" width="110" height="40" rx="6" />
  </g>
  <rect x="280" y="44" width="36" height="18" rx="3" fill="#ffd166" />
  <text x="86" y="80" font-family="Arial, Helvetica, sans-serif" font-size="20" fill="#0b3340">$1,234.56</text>
</svg>
