<svg xmlns="http://www.w3.org/2000/svg" width="800" height="500" viewBox="0 0 800 500" role="img" aria-labelledby="title desc">
  <title id="title">Mortgage planning illustration</title>
  <desc id="desc">A house model beside a calculator and financial charts.</desc>
  <rect width="800" height="500" fill="#f5f8ff"/>
  <rect x="80" y="100" width="260" height="220" rx="16" fill="#ffffff" stroke="#dbe4f0" stroke-width="4"/>
  <rect x="120" y="160" width="180" height="120" rx="10" fill="#4a6fa5"/>
  <rect x="145" y="135" width="130" height="80" rx="8" fill="#8db4d8"/>
  <rect x="145" y="180" width="40" height="60" fill="#ffffff"/>
  <rect x="205" y="180" width="40" height="60" fill="#ffffff"/>
  <rect x="420" y="140" width="220" height="180" rx="24" fill="#ffffff" stroke="#dbe4f0" stroke-width="4"/>
  <rect x="455" y="175" width="150" height="110" rx="10" fill="#f5b942"/>
  <line x1="485" y1="250" x2="575" y2="185" stroke="#2f4f4f" stroke-width="12" stroke-linecap="round"/>
  <line x1="485" y1="225" x2="575" y2="225" stroke="#2f4f4f" stroke-width="12" stroke-linecap="round"/>
  <line x1="485" y1="200" x2="575" y2="200" stroke="#2f4f4f" stroke-width="12" stroke-linecap="round"/>
  <path d="M120 360 C220 290, 310 290, 420 340" fill="none" stroke="#4caf50" stroke-width="10" stroke-linecap="round"/>
  <path d="M420 340 C480 300, 560 300, 660 330" fill="none" stroke="#3f51b5" stroke-width="10" stroke-linecap="round"/>
  <text x="120" y="430" font-family="Arial, sans-serif" font-size="36" font-weight="700" fill="#1f3d5a">Mortgage Planning</text>
</svg>
